<?xml version="1.0" encoding="utf-8"?>
<!-- Generator: Adobe Illustrator 22.0.1, SVG Export Plug-In . SVG Version: 6.00 Build 0)  -->
<svg version="1.1"
	 id="svg2" inkscape:version="0.92.1 r" sodipodi:docname="logo.svg" xmlns:cc="http://creativecommons.org/ns#" xmlns:dc="http://purl.org/dc/elements/1.1/" xmlns:inkscape="http://www.inkscape.org/namespaces/inkscape" xmlns:rdf="http://www.w3.org/1999/02/22-rdf-syntax-ns#" xmlns:sodipodi="http://sodipodi.sourceforge.net/DTD/sodipodi-0.dtd" xmlns:svg="http://www.w3.org/2000/svg"
	 xmlns="http://www.w3.org/2000/svg" xmlns:xlink="http://www.w3.org/1999/xlink" x="0px" y="0px" viewBox="0 0 289.9 120.8"
	 style="enable-background:new 0 0 289.9 120.8;" xml:space="preserve">
<style type="text/css">
	.st0{fill:#FFFFFE;}
	.st1{clip-path:url(#SVGID_2_);}
	.st2{fill:none;stroke:#000000;stroke-width:2;stroke-miterlimit:10;}
	.st3{fill:url(#path54_1_);}
	.st4{fill:url(#path58_1_);stroke:#FFFFFF;stroke-miterlimit:10;}
	.st5{fill:url(#path62_1_);}
	.st6{fill:url(#path66_1_);}
	.st7{fill:url(#path70_1_);}
	.st8{fill:url(#path74_1_);}
	.st9{fill:url(#path78_1_);}
	.st10{fill:url(#path82_1_);}
	.st11{fill:url(#path86_1_);}
	.st12{fill:url(#path90_1_);}
	.st13{fill:url(#path94_1_);}
	.st14{fill:url(#path98_1_);}
	.st15{fill:url(#path102_1_);}
	.st16{fill:url(#path106_1_);}
	.st17{fill:url(#path110_1_);}
	.st18{fill:url(#path114_1_);}
	.st19{fill:url(#path118_1_);}
	.st20{fill:url(#path122_1_);}
	.st21{fill:url(#path126_1_);}
	.st22{fill:url(#path130_1_);}
	.st23{fill:url(#path134_1_);}
	.st24{fill:url(#path138_1_);}
	.st25{fill:url(#path142_1_);}
	.st26{fill:url(#path146_1_);}
	.st27{fill:url(#path150_1_);}
	.st28{fill:url(#path154_1_);}
	.st29{fill:url(#path158_1_);}
	.st30{fill:url(#path162_1_);}
	.st31{fill:url(#path174_1_);}
	.st32{fill:url(#path178_1_);}
	.st33{fill:url(#path182_1_);}
	.st34{fill:url(#path186_1_);}
	.st35{fill:url(#path190_1_);}
	.st36{fill:url(#path194_1_);}
	.st37{fill:url(#path198_1_);}
	.st38{fill:url(#path202_1_);}
	.st39{fill:url(#path206_1_);}
	.st40{fill:url(#path210_1_);}
	.st41{fill:url(#path214_1_);}
	.st42{fill:url(#path218_1_);}
	.st43{fill:url(#path222_1_);}
</style>
<title  id="title3569">Pext Logo</title>
<sodipodi:namedview  bordercolor="#666666" borderopacity="1" fit-margin-bottom="0" fit-margin-left="0" fit-margin-right="0" fit-margin-top="0" gridtolerance="10" guidetolerance="10" id="namedview4" inkscape:current-layer="g10" inkscape:cx="144.94875" inkscape:cy="60.412949" inkscape:pageopacity="0" inkscape:pageshadow="2" inkscape:window-height="716" inkscape:window-maximized="0" inkscape:window-width="879" inkscape:window-x="0" inkscape:window-y="22" inkscape:zoom="2.5905709" objecttolerance="10" pagecolor="#ffffff" showgrid="false">
	</sodipodi:namedview>
<g id="g10" transform="matrix(1.25,0,0,-1.25,-44.416881,166.03808)" inkscape:groupmode="layer" inkscape:label="Leoger_v2-1">
	<path id="path6899" inkscape:connector-curvature="0" class="st0" d="M46.7,107.4l-2.1,2.2v2.5l4.4,5.6l6.1,5.2l6.4,3.9l6.4,2.8
		l7.8,1.3l8,1.5l6.9-0.1l12.2-2.5l8.4-4.6l5.1-3.6l5.2-4.4l5.7-7.5l3.9-7.4l3.2-7.7l0.9-7.8V79l-2.8-6.8l-2.7-4.9l-2.7-3.9l-5.1-4
		l-1.3-1.1l1.6-4.7v-2.3l-2.1-4.5l-3.4-3.2l-3-3.9l-2.2-1l-1,0.7l-3.3-2.4h-2l-4.5,0.8l-6.1,2.1l-3.5,0.2l-3.6-0.3l-12-2.8l-7.1-0.1
		l-3.7,1.6l-5.7,2.4l-6.1,4.1l-1.5,1.6l-7.1,5.7L39,59.3l-3.2,7.5l-1.7,7.8l0.5,10.7L38.1,97l4.7,6.4L46.7,107.4z"/>
	<g id="g12">
		<g>
			<defs>
				<rect id="SVGID_1_" x="-40" y="-21.1" width="378.7" height="211.2"/>
			</defs>
			<clipPath id="SVGID_2_">
				<use xlink:href="#SVGID_1_"  style="overflow:visible;"/>
			</clipPath>
			<g id="g14" class="st1">
				<g id="g20" transform="translate(149.4937,85.168)">
					<path id="path22" inkscape:connector-curvature="0" d="M-2.1,0H9.5c2,0,4,0.5,6,1.5c3.8,1.9,5.6,5.3,5.6,10.1
						c0,4.8-1.9,8.1-5.6,10.1c-1.9,1-3.9,1.5-6,1.5H-2.1V0z M-3.5-25.2v49.1c0,0.4,0.2,0.7,0.7,0.7H9.5c2.2,0,4.3-0.6,6.5-1.7
						c4.3-2.2,6.4-5.9,6.4-11.2c0-5.3-2.1-9.1-6.4-11.3c-2.2-1.1-4.4-1.7-6.5-1.7l-11.6,0v-23.9c0-0.4-0.2-0.7-0.7-0.7
						C-3.3-25.9-3.5-25.7-3.5-25.2"/>
				</g>
				<g id="g24" transform="translate(149.4937,85.168)">
					<path id="path26" inkscape:connector-curvature="0" class="st2" d="M-2.1,0H9.5c2,0,4,0.5,6,1.5c3.8,1.9,5.6,5.3,5.6,10.1
						c0,4.8-1.9,8.1-5.6,10.1c-1.9,1-3.9,1.5-6,1.5H-2.1V0z M-3.5-25.2v49.1c0,0.4,0.2,0.7,0.7,0.7H9.5c2.2,0,4.3-0.6,6.5-1.7
						c4.3-2.2,6.4-5.9,6.4-11.2c0-5.3-2.1-9.1-6.4-11.3c-2.2-1.1-4.4-1.7-6.5-1.7l-11.6,0v-23.9c0-0.4-0.2-0.7-0.7-0.7
						C-3.3-25.9-3.5-25.7-3.5-25.2z"/>
				</g>
				<g id="g28" transform="translate(207.4663,85.168)">
					<path id="path30" inkscape:connector-curvature="0" d="M-2.1,0C-2.3,2.4-3,4.6-4.2,6.4c-2,3-5.2,4.5-9.4,4.5
						c-4.3,0-7.4-1.5-9.4-4.5c-1.2-1.8-1.9-4-2.1-6.4H-2.1z M-24.9-19.4c-1.1,2.2-1.7,4.3-1.7,6.5v12.3c0,2.3,0.6,4.5,1.8,6.6
						c2.2,4.2,5.9,6.3,11.2,6.3c5.3,0,9.1-2.1,11.2-6.4c1.1-2.2,1.7-4.4,1.7-6.5c0-0.5-0.2-0.7-0.7-0.7h-23.8v-11.6c0-2,0.5-4,1.5-6
						c1.9-3.7,5.3-5.6,10.1-5.6s8.1,1.9,10.1,5.6c1,1.9,1.5,3.9,1.5,6c0,0.4,0.2,0.7,0.7,0.7c0.4,0,0.7-0.2,0.7-0.7
						c0-2.2-0.6-4.3-1.7-6.5c-2.2-4.3-5.9-6.4-11.2-6.4S-22.7-23.7-24.9-19.4"/>
				</g>
				<g id="g32" transform="translate(207.4663,85.168)">
					<path id="path34" inkscape:connector-curvature="0" class="st2" d="M-2.1,0C-2.3,2.4-3,4.6-4.2,6.4c-2,3-5.2,4.5-9.4,4.5
						c-4.3,0-7.4-1.5-9.4-4.5c-1.2-1.8-1.9-4-2.1-6.4H-2.1z M-24.9-19.4c-1.1,2.2-1.7,4.3-1.7,6.5v12.3c0,2.3,0.6,4.5,1.8,6.6
						c2.2,4.2,5.9,6.3,11.2,6.3c5.3,0,9.1-2.1,11.2-6.4c1.1-2.2,1.7-4.4,1.7-6.5c0-0.5-0.2-0.7-0.7-0.7h-23.8v-11.6c0-2,0.5-4,1.5-6
						c1.9-3.7,5.3-5.6,10.1-5.6s8.1,1.9,10.1,5.6c1,1.9,1.5,3.9,1.5,6c0,0.4,0.2,0.7,0.7,0.7c0.4,0,0.7-0.2,0.7-0.7
						c0-2.2-0.6-4.3-1.7-6.5c-2.2-4.3-5.9-6.4-11.2-6.4S-22.7-23.7-24.9-19.4z"/>
				</g>
				<g id="g36" transform="translate(243.6587,60.3477)">
					<path id="path38" inkscape:connector-curvature="0" d="M-2.1,0c0.3-0.4,0.2-0.7-0.2-0.9C-2.4-1-2.5-1.1-2.7-1.1
						c-0.3,0-0.4,0.1-0.6,0.3l-11.7,17.5L-26.6-0.7c-0.1-0.2-0.3-0.3-0.6-0.3c-0.1,0-0.3,0-0.4,0.1C-27.9-0.7-28-0.4-27.7,0l12,18
						l-12,18c-0.1,0.1-0.2,0.3-0.1,0.5c0,0.2,0.1,0.3,0.3,0.5c0.4,0.3,0.7,0.2,0.9-0.2l11.7-17.5l11.7,17.5c0.2,0.4,0.5,0.5,0.9,0.2
						c0.2-0.1,0.3-0.3,0.3-0.5c0-0.2,0-0.4-0.1-0.5l-12-18L-2.1,0z"/>
				</g>
				<g id="g40" transform="translate(243.6587,60.3477)">
					<path id="path42" inkscape:connector-curvature="0" class="st2" d="M-2.1,0c0.3-0.4,0.2-0.7-0.2-0.9C-2.4-1-2.5-1.1-2.7-1.1
						c-0.3,0-0.4,0.1-0.6,0.3l-11.7,17.5L-26.6-0.7c-0.1-0.2-0.3-0.3-0.6-0.3c-0.1,0-0.3,0-0.4,0.1C-27.9-0.7-28-0.4-27.7,0l12,18
						l-12,18c-0.1,0.1-0.2,0.3-0.1,0.5c0,0.2,0.1,0.3,0.3,0.5c0.4,0.3,0.7,0.2,0.9-0.2l11.7-17.5l11.7,17.5c0.2,0.4,0.5,0.5,0.9,0.2
						c0.2-0.1,0.3-0.3,0.3-0.5c0-0.2,0-0.4-0.1-0.5l-12-18L-2.1,0z"/>
				</g>
				<g id="g44" transform="translate(265.7485,59.293)">
					<path id="path46" inkscape:connector-curvature="0" d="M-2.1,0c-2.2,0-4.3,0.6-6.5,1.7C-12.9,3.9-15,7.6-15,12.9v36.8
						c0,0.4,0.2,0.7,0.7,0.7c0.5,0,0.7-0.2,0.7-0.7V38.1h11.6c0.5,0,0.7-0.2,0.7-0.7c0-0.4-0.2-0.7-0.7-0.7h-11.6V12.9
						c0-4.8,1.9-8.1,5.6-10.1c1.9-1,3.9-1.5,5.9-1.5c0.5,0,0.7-0.2,0.7-0.7C-1.4,0.2-1.6,0-2.1,0"/>
				</g>
				<g id="g48" transform="translate(265.7485,59.293)">
					<path id="path50" inkscape:connector-curvature="0" class="st2" d="M-2.1,0c-2.2,0-4.3,0.6-6.5,1.7C-12.9,3.9-15,7.6-15,12.9
						v36.8c0,0.4,0.2,0.7,0.7,0.7c0.5,0,0.7-0.2,0.7-0.7V38.1h11.6c0.5,0,0.7-0.2,0.7-0.7c0-0.4-0.2-0.7-0.7-0.7h-11.6V12.9
						c0-4.8,1.9-8.1,5.6-10.1c1.9-1,3.9-1.5,5.9-1.5c0.5,0,0.7-0.2,0.7-0.7C-1.4,0.2-1.6,0-2.1,0z"/>
				</g>
				<g id="g52" transform="translate(86.6968,131.2461)">
					<linearGradient id="path54_1_" gradientUnits="userSpaceOnUse" x1="-4.6359" y1="-3.8121" x2="-6.0348" y2="1.16">
						<stop  offset="0" style="stop-color:#F40000"/>
						<stop  offset="0.2389" style="stop-color:#ED690F"/>
						<stop  offset="0.4087" style="stop-color:#E2E900"/>
						<stop  offset="0.5298" style="stop-color:#85DE00"/>
						<stop  offset="0.6205" style="stop-color:#46D700"/>
						<stop  offset="0.6632" style="stop-color:#2DD400"/>
						<stop  offset="0.8837" style="stop-color:#000CBF"/>
					</linearGradient>
					<path id="path54" inkscape:connector-curvature="0" class="st3" d="M-2.1,0c-0.4,0.7-1.5,0-1.8-0.5C-4.2-1.4-5-1.2-5.7-1
						c-0.8,0.2-4.7,1.4-3-1C-6.8-4.8,0.3-4-2.1,0C-2.3,0.3-2-0.2-2.1,0"/>
				</g>
				<g id="g56" transform="translate(136.5444,78.998)">
					<linearGradient id="path58_1_" gradientUnits="userSpaceOnUse" x1="-43.0234" y1="-28.1535" x2="-62.6827" y2="41.7228">
						<stop  offset="0" style="stop-color:#F40000"/>
						<stop  offset="0.2389" style="stop-color:#ED690F"/>
						<stop  offset="0.4087" style="stop-color:#E2E900"/>
						<stop  offset="0.5298" style="stop-color:#85DE00"/>
						<stop  offset="0.6205" style="stop-color:#46D700"/>
						<stop  offset="0.6632" style="stop-color:#2DD400"/>
						<stop  offset="0.8837" style="stop-color:#000CBF"/>
					</linearGradient>
					<path id="path58" inkscape:connector-curvature="0" class="st4" d="M-2.1,0c-0.3-1.5-1-2.9-1.5-4.3C-4.7-3-5.3-2.9-7-2.9
						c-1.2,0-2.7-1.6-2.1-2.8c0.4-0.9,0.2-2.5,0.8-3.3c0.8-1.1,0-0.4-0.1-1.7c0-0.6,0.3-0.8,0.7-1.1l-0.9-1.5
						c-0.9,1.6-2.2,2-3.9,1.8c-2.3-0.2-3-1.5-3.6-3.6c-0.4-1.8,1.4-3.7,2.7-1.7c0.9,1.3,1.2,3.3,3.2,1.8c-1.8-2-4-3.5-6.2-5.1
						c-1,1.4-2.4,4.1-4.3,4.2c0.9,1.7,1.4,1.7,3,2.7c1.2,0.7,2,1.8,3.1,2.7c1.1,1,1.1,2.2,2.5,2.8c1,0.4,1.5,2.4,1.6,3.4
						c0.1,0.7,0.6,3.2-0.2,3.7c-0.7,0.5-0.3,2.8-0.7,3.6c-1.1,2.7-3.6,5.2-4.4,8c1.5-0.1,3.1-1.6,4.6-0.9c1.2,0.6,2.3,2.4,2.5,3.6
						c0.1,1.2-0.2,2.6-1.2,3.4c-0.8,0.7-3.4,2.4-4.3,1.2c-1.1-1.3,0.9-2.1,1.7-2.5c1.1-0.7,0.2-1.8-0.4-2.5
						c-1.1-1.2-3.7,5.6-5.1,1.5c-1.1,1.9-1.7,3.9-2.2,6c1.4-1.7,5.4-1.3,4.9,1.4c-0.3,1.5-1.2,0.7-2,0.5c-1.2-0.3-0.2,0.9,0.5,1.1
						c1.5,0.5,1.7-0.5,2.7,1.1c0.5,0.7-0.7,1.6-1.3,1.7c-1.8,0.3-5.4-0.4-6.1-2.4c-0.6,1.1-2.6,3.6,0,3.5c1.7-0.1,2.2,3,0.4,3.5
						c-1,0.3-2.7,1-3.7,0.6c-1.9-0.8,0.3-2.2,0.3-3.4c-1.2,0.9-2.7,2.4-3.7,3.5c0.4,0.7,2,2.5,1,3.5c-0.9,0.9-2,2.3-3.1,0.7
						c-0.6-0.8-0.3-1.7-0.7-2.5c-1,0.5-2.1,0.9-3,1.5c0.1,0.3,2.2,0.5,2.6,0.8c1.9,1.1-1.3,1.7-1.6,1.8c-1.5,0.5-2.2,0.2-2.7-1.2
						c-0.4-1.1-2.8,0.3-3.3,0.8c0.9,0.7,2.7,0.3,3.2,1.7c0.4,1,0.2,3.5-1,4c-1.5,0.7-2.3,0.4-3.7,0.6c-0.7,0.1-3.9,0.1-3.3-1.3
						c0.4-1,1.7-1.7,2.8-1.7c0.5,0,2.8,0.4,2.9-0.3c0.4-1.5-2.4,0.4-3-0.1c-0.6-0.4-0.7-0.7-0.9-1.4c-0.4-0.1-2,1-2.4,1.2
						c-0.5,0.3-1.4,0.7-1.8,1.2c-0.5,0.7,0,1.2-0.9,1.7c-0.4,0.2-1.2,0.6-1.7,0.4c-1.1-0.6-0.4-0.9-2.1-0.2c-0.5,0.2-0.8,1.6-1,2.1
						c-0.4,0.9-1.1,1.5-1.8,2.2c0,0-0.9,0.4-1,0.5c-0.4,0.2-0.8,0-1.3-0.1c-3.3-0.7-4.6-3.7-7.5-5c-3.3-1.5-6.5-3.2-9.7-4.9
						c0.9,2,1.2,1.8,3.1,2.3c1.5,0.4-0.3,3.1-1.7,2.8c-2.3-0.4-6.8-4.4-2.9-5.8c-1.8-1.2-3.7-2.1-5.5-3.2c-1.4-0.8-2.7-1.7-4.1-2.5
						c-0.5-0.3-2.7-2.1-3.3-1.9c-0.8,0.3-2-0.1-3,0.2c-1,0.4-1,2.4-0.5,3.1c1.4,2,2.5,3.8,4.3,5.5c4.1,3.7,8.2,7.7,13.7,9.3
						c1,0.3,1.7,1.1,2.7,1.4c1.4,0.5,2.7,0.9,4.2,1.2c3,0.6,6,1.3,9,1.9c9.5,1.9,20.5-0.1,28.9-4.7c4.5-2.5,8.8-5.5,12.4-9.2
						c0.9-0.9,5.2-4.9,4.1-6c-0.6-0.5-1.1-2.5-1.9-2.4c-1.3,0.2-1,1.5-1.1,2.4c2.1-0.5,2.1,1.7,1.2,2.9c-0.4,0.6-1.4,0.6-2.1,0.6
						c-1.2-0.1-0.8-1.8-0.7-2.5c-2.6,2.5-1.9-2.5-0.9-3.8c2.3-3.1,5.6-2.9,7.6,0.3c2.1-2,3.1-5.2,4.4-7.8c0.6-1.4-2.3-1.4-3-0.2
						c-0.5,1,2.3,1,1,2.9c-0.6,1-1.8,1.6-3,1.1c-1.7-0.7-1.1-2.8-0.7-4.1c0.5-1.5,1.8-2.9,3.1-3.8c1.3-0.8,2.8,0.5,3.8,1.1
						c0.8-2,1.7-3.9,2.1-6.1C-2,12-1.9,10.8-2,9.7c-0.5-0.1-1.7-1.1-2-0.7c-1,1.6-2.3,2.9-2.7,0.3C-6.8,8.5-5.4,7-4.8,6.6
						C-3.7,5.8-2.7,6.4-2,7.2c0.4-0.5,0.3-2.4,0.3-3C-1.7,2.8-1.8,1.4-2.1,0C-2.2-0.5-1.8,1.4-2.1,0 M-6.3-9.5
						c-0.3,0.1-0.6,0.2-0.8,0.3c0.2,0.4,1,3,1.2,2.9C-4-7.1-5.7-8.1-6.3-9.5C-6.6-9.4-5.9-8.6-6.3-9.5 M-0.8,3.8C-1,4.7-0.7,6-0.8,7
						c-0.1,1.1-0.4,2.3-0.3,3.5c0.2,2.8-0.8,6.4-2.1,8.9c-1.4,2.7-2.4,5.5-3.8,8.2c-1.5,2.8-3.4,5.4-5.2,8
						c-2.7,4.1-7.4,7.5-11.4,10.2c-4.7,3.3-10,5.8-15.6,6.9c-5.1,1-10.1,1.2-15.4,1.1c-2.2,0-4.7-1-6.9-1.4c-3-0.6-6.1-0.9-8.9-2
						c-5.3-2.2-10.8-4.8-14.9-8.8c-2.9-2.8-11.4-10-4.4-13.2c-4.8-4-8.5-7.5-10.4-13.6c-2-6.1-3.5-12.7-2.6-19.2
						c0.9-6,3.1-12.7,6.6-17.7c1.6-2.4,3.6-4.4,5.6-6.4c0.7-0.7,5.7-3.6,5.7-4c-0.7,0.4-1.3,0.6-2,0.8c-1,0.4-1.5,0.4-0.2-0.4
						c0.7-0.5,6-4.1,6.7-3.3c0,0-7.2,5.6-7.7,6c-3.3,2.6-6.6,6.3-8.5,10c-4.4,8.7-6.5,18.4-4.1,28.1c1.9,8,5.5,16,13.5,19.8
						c3.8,1.8,7.7,4.4,11.3,6.6c4,2.5,8.3,4.7,12.6,6.6c-1.4-2.1-3-4-3.9-6.4c-0.5-1.2-2.3-7.4,0-7.1c1.2,0.1,2.4,1.3,3.7,1.5
						c1.1,0.2,2.1,0.1,3.2,0.5c1.5,0.5-0.7,4.8-0.6,6.3c0.2,2.4,1.2,5.8,2.5,7.9c0.5,0.8,1.5,2.1,2.4,2.5c1.3,0.8,2.1-0.5,2.8-1.5
						c0.9-1.3,1.1-3.1,1.5-4.6c0.2-0.7,0.2-3.3,0.7-3.8c1-0.9,0.6,1.7,0.6,1.8c-0.1,0.9-0.6,2.6-0.3,3.4c4.5-2.6,9-5.1,13.7-7.3
						c4.3-2.1,10.7-4.3,13.2-8.8c2.2-3.9,2.8-8.2,5.1-12c1.5-2.5,3-5,4.4-7.6C-13.5,5-12,2.7-12,0.8c-0.8,0-1.5,0.5-2.3,0.5
						c-1.2,0.1-2.6,0-3.8-0.1c-2.7-0.3-1.3-3.7,0.1-4.7c0.3-0.2,1.4-1,1.7-0.4c0.8,1.1,1-1.2,1-1.4c0.3-1.1,1.2-2.2,0.6-3.3
						c-0.6-1-1.7-2.1-2.6-2.9c-4.5-3.9-11.1,0.6-15.1,3.3c-1,0.7-1.9,1.4-2.9,2.1C-36-5.5-35.5-7-35-7.4c2.2-1.7,4.6-3.5,7.1-4.6
						c1-0.4,2-0.8,3-1.2c0.6-0.2,3.5-0.6,3.8-1.1c0.6-1.1-4.2-4.1-4.9-4.5c-2.7-1.4-4.8-1.4-7.4,0.1c-2.4,1.4-4.4,3.6-6.7,5.2
						c-0.8,0.5-1.6,1.4-2.5,1.6c-0.8,0.2-1.2-0.4-0.4-0.7c1.5-0.6,0-1-0.6-1.4c-1-0.7-2.4-1.2-3.2-2.1c-0.3-0.4-1.1-1.2-0.8-1.8
						c0.6-1,1.4,0.3,1.9,0.7c1.6,1.3,4.5,0.5,4.8,3.2c0.9-0.6,1.8-2,2.1-3c0.4-1.7,1.1-0.6,0.6,0.7c2.2-1.6,5.6-5.5,8.7-4.8
						c3.4,0.8,6.2,2.3,8.5,5c1.9-1.6,3.2-3.5,4.5-5.6c1.8-2.9,2.8-5.1,0.8-8.1c-0.3,0.2-0.8,1.7-1.1,2c-0.7,1-1.5,2-2.3,2.9
						c-0.7,0.8-3.1,4.9-4.1,3.6c1.5-1,2.8-3.4,4-4.9c2.2-2.6,3.5-4.9,0.8-7.6c-1,3.7-1.8-2-2.6-2.9c-1.4-1.4-2.7-3.6-5-3.2
						c1,2.3,2.8,4.4,0.8,6.6c-0.9,1-2,1.5-3.1,2c-1.5,0.7-2.1,0.1-0.5-0.8c1.2-0.6,2.3-1.1,3.2-2.1c1-1,0.8-1.7,0.1-3
						c-1.5-3.2-3.8-5.3-7.5-4.5c-2.8,0.6-5.4,2.1-8.2,2.7c-2.9,0.6-6.4,0.3-9.3-0.3c-3.4-0.7-6.5-1.9-10-2.4
						c-1.6-0.2-3.2-0.1-4.7-0.3c-1.2-0.2-3.3,0.4-4.4-0.1c0.7-1.5,7.5-0.7,8.9-0.6c3.7,0.5,7,1.7,10.6,2.5c2.9,0.6,5.7,0.5,8.5-0.1
						c2.9-0.7,5.9-2,8.9-2.4c1.2-0.2,2.7-0.4,3.9,0.2c0.9,0.5,2.1,2,3.1,1.8c3-0.7,5.4,3.5,6.9,5.4c2.1,0.6,3.7,3.7,4.3,5.6
						c0.3,1.1,1.8,3.6,0.9,4.6c-1,1.2-1.6,2.9-2.3,4.3c3.5,1.7,8.2,5.6,9.6,9.4c1,2.5,3,4.6,4,7.2C-1.4-2.1-0.3,1.6-0.8,3.8
						C-0.8,3.8-0.6,3.1-0.8,3.8"/>
				</g>
				<g id="g60" transform="translate(46.5933,71.6211)">
					<linearGradient id="path62_1_" gradientUnits="userSpaceOnUse" x1="5.7478" y1="-22.4745" x2="-11.3676" y2="38.3597">
						<stop  offset="0" style="stop-color:#F40000"/>
						<stop  offset="0.2389" style="stop-color:#ED690F"/>
						<stop  offset="0.4087" style="stop-color:#E2E900"/>
						<stop  offset="0.5298" style="stop-color:#85DE00"/>
						<stop  offset="0.6205" style="stop-color:#46D700"/>
						<stop  offset="0.6632" style="stop-color:#2DD400"/>
						<stop  offset="0.8837" style="stop-color:#000CBF"/>
					</linearGradient>
					<path id="path62" inkscape:connector-curvature="0" class="st5" d="M-2.1,0c2.6-5.3,6.5-13.8,9-19.1c0.2-0.3,1.9-2.3,1.6-2.5
						c-0.6-0.7-2.3,0.8-2.7,1.3c-2.6,2.6-4.3,5.5-6,8.8c-1.6,3.1-2.7,6.6-4.6,9.6C-6.6,0.9-7.9,3.6-8.1,7c-0.2,3.2-0.9,6.6-0.1,9.8
						c0.8,3.3,2.5,6.1,3.7,9.1c0.1,0.3,0.8,2.4,1.4,1.2c0.5-0.8-0.9-3.5-1.2-4.2c-1.3-3-2.7-5.9-2.2-9.2c0.4-2.7,1.7-4.8,3.3-7
						c1.7-2.4,3-5,4.8-7.4c2.2-2.9,4.1-5.7,5.9-8.9c0.8-1.3,1.8-2.9,1.7-4.5c-0.1-1.2,1.3-3.3,0.8-4.4c-0.6-1.5-1.8,2.2-1.9,2.6
						c-0.8,1.8-1.5,3.7-2.7,5.3C4.9-10,1.1-2.6,0.6-2.8C0.7-3-2.1,0-2.1,0"/>
				</g>
				<g id="g64" transform="translate(96.7534,54.5195)">
					<linearGradient id="path66_1_" gradientUnits="userSpaceOnUse" x1="-2.06" y1="-14.6955" x2="-15.7531" y2="33.9746">
						<stop  offset="0" style="stop-color:#F40000"/>
						<stop  offset="0.2389" style="stop-color:#ED690F"/>
						<stop  offset="0.4087" style="stop-color:#E2E900"/>
						<stop  offset="0.5298" style="stop-color:#85DE00"/>
						<stop  offset="0.6205" style="stop-color:#46D700"/>
						<stop  offset="0.6632" style="stop-color:#2DD400"/>
						<stop  offset="0.8837" style="stop-color:#000CBF"/>
					</linearGradient>
					<path id="path66" inkscape:connector-curvature="0" class="st6" d="M-2.1,0C-2-0.5-1.2-1-0.8-1.3c0.7-0.6,0.4-2.5,0.4-3.3
						c0-0.5-0.9-0.8-1-0.2c-0.1,0.9-0.7,1.5-0.9,2.3C-3,0-4.8,0-6.9,0.2c-2,0.2-4,0.5-6,0.7c0-0.8,1.6-1.5,2.1-2
						c0.8-0.9,1.3-2,1.1-3.2C-9.8-5-9.8-7-10.6-7.2c-0.9-0.3-1,2.9-1.1,3.6c-0.4,2.2-2.2,4.7-4.3,5.1c-3.2,0.7-5.9,2-8.9,3.1
						c0.8-1.2,2.1-2.2,3-3.3c1.3-1.7,1.8-3.2,2-5.3c0.1-0.9,1.6-4.3,1-4.9c-0.4-0.4-2.6,4.3-3,4.9c-1.2,2-2.5,4-4.2,5.5
						c-1.7,1.5-3.6,2.6-5.2,4.2c-0.4,0.4-2.8,2.6-2.3,3.1C-32.3,10-29.5,6.4-29,7c-1.2,0.5-0.9,2.4-0.4,1.6c1-1.5,3.3-2.5,5-3.1
						C-20.8,4-17,2.6-13.3,1.9c-0.1,0.8-3.1,2.4-3.8,2.8c-2,1.2-3.7,2.4-5.4,4c-1.6,1.5-2.5,4.2-3.2,6.3c-0.4,1.1-0.7,2.2-1.2,3.3
						c-0.1,0.3-0.6,3,0.5,1.9c1.2-1.2,1.8-3.2,2.9-4.6c1.3-1.8,2.3-3.7,4-5.4c1.6-1.5,8.5-6,6.6-8.3c0.8-0.4,1.9-0.1,2.7-0.3
						C-8.4,1.2-6.5,1-4.7,1c1.3,0,3.7-0.7,3.5,1.3c0,0.3,0.5,1.2,0.7,0.5c0.2-0.6,0.1-1,0.1-1.6c0.8-0.3,2.1,0.1,2.9,0.1
						c1.6,0,2.9-0.4,4.4-0.9c3.1-1,5.7-2.6,8.7-3.8c-0.2,0.3-2.3,3.4-0.8,2.9c1.4-0.4,1.5-3.3,2.8-4.2c1.1-0.7,3.1-1.6,3.5-3
						c0.4-1.6-1.9,0.6-2.2,0.9C13.1-2.3,5.3,1.4-2.1,0C-2.1-0.3-2,0-2.1,0"/>
				</g>
				<g id="g68" transform="translate(94.6167,97.8711)">
					<linearGradient id="path70_1_" gradientUnits="userSpaceOnUse" x1="-1.3945" y1="-9.9187" x2="-9.54" y2="19.0336">
						<stop  offset="0" style="stop-color:#F40000"/>
						<stop  offset="0.2389" style="stop-color:#ED690F"/>
						<stop  offset="0.4087" style="stop-color:#E2E900"/>
						<stop  offset="0.5298" style="stop-color:#85DE00"/>
						<stop  offset="0.6205" style="stop-color:#46D700"/>
						<stop  offset="0.6632" style="stop-color:#2DD400"/>
						<stop  offset="0.8837" style="stop-color:#000CBF"/>
					</linearGradient>
					<path id="path70" inkscape:connector-curvature="0" class="st7" d="M-2.1,0c-2.6-2.8-5.3-6.4-5.6-10.4c0-0.4-0.1-2-1-1.2
						c-0.6,0.4-0.6,2.4-0.7,3.1C-9.6-7.5-9.8-6.4-10-5.4c-0.2,1.3,0.8,1.6,1.5,2.4C-7-1.3-8.2-0.1-8.6,1.7C-8.8,2.5-7.7,7.5-7,7.6
						c1,0.2,1.1-2.6,1.7-3.2c0.9-1.1,4.8-1.1,3.4,0.5C-3,6.1-5.2,6.7-5.6,8.3c-0.2,1-0.3,1.9-0.4,2.9c-0.3,1.8-0.1,1.3,1.4,2.1
						c1.1,0.7,4.1,3.4,3.4,0.3C-1.6,11.8-2.1,9.7-1.1,8c1-1.6,3-2.4,3.8-4.2c0.9-2-0.9-3.9-2.4-4.8c-1-0.7-2.4-3.7-3.6-3.9
						C-5.1-5.1-1.3-0.7-2.1,0C-2.3-0.2-1.7-0.4-2.1,0"/>
				</g>
				<g id="g72" transform="translate(58.6421,108.127)">
					<linearGradient id="path74_1_" gradientUnits="userSpaceOnUse" x1="-1.9789" y1="-13.5673" x2="-7.8395" y2="7.263">
						<stop  offset="0" style="stop-color:#F40000"/>
						<stop  offset="0.2389" style="stop-color:#ED690F"/>
						<stop  offset="0.4087" style="stop-color:#E2E900"/>
						<stop  offset="0.5298" style="stop-color:#85DE00"/>
						<stop  offset="0.6205" style="stop-color:#46D700"/>
						<stop  offset="0.6632" style="stop-color:#2DD400"/>
						<stop  offset="0.8837" style="stop-color:#000CBF"/>
					</linearGradient>
					<path id="path74" inkscape:connector-curvature="0" class="st8" d="M-2.1,0c-0.6-0.5-2.4-1.4-2.7-2.1c-0.2-0.4-0.5-1.1-0.3-1.6
						C-4.9-4.3-4.1-4.3-4.2-5c-0.4-4-3.1-6.1-4.8-9.6c-0.2-0.5-0.2-1.1-0.8-1.2c-0.3,0-1.2-0.5-0.9,0.4c0.6,1.7,1.1,3.4,1.3,5.2
						c0.3,4,0.5,6.7,3.4,9.6c2.2,2.2,4.7,3.7,7,5.7c0.5,0.4,1.6,0,1.3-0.7C2,3.8,1.7,3.3,1.3,2.7C0.6,1.4,0.1-0.2-0.3-1.6
						c-0.5-1.8-0.3-3.2,1-4.6c0.5-0.5,0.9-1,0.9-1.7c0-1-1.2-0.7-1.4,0c-0.4,1.2-2.1,2.2-2.8,3.4C-3.9-2.5-2-1.9-2.1,0
						C-2.2-0.1-2.1-0.4-2.1,0"/>
				</g>
				<g id="g76" transform="translate(80.6616,82.6699)">
					<linearGradient id="path78_1_" gradientUnits="userSpaceOnUse" x1="6.9996" y1="-6.7543" x2="-3.7071" y2="31.3009">
						<stop  offset="0" style="stop-color:#F40000"/>
						<stop  offset="0.2389" style="stop-color:#ED690F"/>
						<stop  offset="0.4087" style="stop-color:#E2E900"/>
						<stop  offset="0.5298" style="stop-color:#85DE00"/>
						<stop  offset="0.6205" style="stop-color:#46D700"/>
						<stop  offset="0.6632" style="stop-color:#2DD400"/>
						<stop  offset="0.8837" style="stop-color:#000CBF"/>
					</linearGradient>
					<path id="path78" inkscape:connector-curvature="0" class="st9" d="M-2.1,0c-0.2,3.1-1.4,5.6-0.3,8.7c1.1,3.1,2.1,6,2.7,9.2
						c0.3,1.5,0.8,2.7,1.6,4c0.6,1,2.3,2.2,2.5,3.3c0.1,0.6,0.9,0.3,1.1,0c0.2-0.3-0.3-0.9-0.4-1.1c-0.8-1.8-2.3-3.2-2.4-5.2
						c-0.1-1.7-0.1-3-0.6-4.6c-0.3-1.1-1-2.3-1.1-3.5C0.7,9.3,0.9,8,0.6,6.6C0.3,4.6-0.3,2.9,0,0.9c0.2-1.5,0.1-2.9,0.5-4.4
						C0.7-4,2.3-7.6,2-8C1.2-9.2-0.4-5.9-0.6-5.6C-1.4-3.8-1.8-2-2.1,0C-2.2,1-2.1-0.3-2.1,0"/>
				</g>
				<g id="g80" transform="translate(62.4604,83.3281)">
					<linearGradient id="path82_1_" gradientUnits="userSpaceOnUse" x1="6.4181" y1="-13.7498" x2="-3.5078" y2="21.5301">
						<stop  offset="0" style="stop-color:#F40000"/>
						<stop  offset="0.2389" style="stop-color:#ED690F"/>
						<stop  offset="0.4087" style="stop-color:#E2E900"/>
						<stop  offset="0.5298" style="stop-color:#85DE00"/>
						<stop  offset="0.6205" style="stop-color:#46D700"/>
						<stop  offset="0.6632" style="stop-color:#2DD400"/>
						<stop  offset="0.8837" style="stop-color:#000CBF"/>
					</linearGradient>
					<path id="path82" inkscape:connector-curvature="0" class="st10" d="M-2.1,0C-2,3.2-1,6.2,0.1,9.2c0.3,0.9,2,6.5,2.7,6.5
						c1.4-0.1,0.1-5.7-0.1-6.5C1.9,6.1,1.5,2.8,1.6-0.3c0.1-2.5,0.2-4.9,0.8-7.3c0.3-1.5,0.8-3,1.5-4.4c0.2-0.4,1-1.4,0.9-1.9
						c-0.1-0.5-0.8-0.5-1.1-0.2c-1.6,1.5-2.6,4-3.4,6C-0.8-5.6-2.1-2.8-2.1,0C-2,2-2.1-0.4-2.1,0"/>
				</g>
				<g id="g84" transform="translate(49.9019,81.1816)">
					<linearGradient id="path86_1_" gradientUnits="userSpaceOnUse" x1="8.2386" y1="-11.1433" x2="-1.0603" y2="21.9083">
						<stop  offset="0" style="stop-color:#F40000"/>
						<stop  offset="0.2389" style="stop-color:#ED690F"/>
						<stop  offset="0.4087" style="stop-color:#E2E900"/>
						<stop  offset="0.5298" style="stop-color:#85DE00"/>
						<stop  offset="0.6205" style="stop-color:#46D700"/>
						<stop  offset="0.6632" style="stop-color:#2DD400"/>
						<stop  offset="0.8837" style="stop-color:#000CBF"/>
					</linearGradient>
					<path id="path86" inkscape:connector-curvature="0" class="st11" d="M-2.1,0c-0.1,2.8,0.5,6.5,2.6,8.4C3,10.6,6.2,13.2,7,16.6
						c0.4,1.5,1.2-0.2,1-1c-0.2-1.2-0.3-3.4-1.2-4.4C5.1,9,2.9,8.1,1.5,5.4c-1.8-3.6-0.9-5.6,0.9-8.9c0.5-0.9,4.9-7.7,3.7-8.2
						c-0.8-0.4-1.5,1.5-1.8,2C3.6-8.4,3.1-7.5,1.9-6.5C-0.4-4.6-2.1-3.2-2.1,0C-2.1,1.3-2.1-0.1-2.1,0"/>
				</g>
				<g id="g88" transform="translate(79.0132,102.5605)">
					<linearGradient id="path90_1_" gradientUnits="userSpaceOnUse" x1="0.5856" y1="-31.6716" x2="-10.6608" y2="8.3021">
						<stop  offset="0" style="stop-color:#F40000"/>
						<stop  offset="0.2389" style="stop-color:#ED690F"/>
						<stop  offset="0.4087" style="stop-color:#E2E900"/>
						<stop  offset="0.5298" style="stop-color:#85DE00"/>
						<stop  offset="0.6205" style="stop-color:#46D700"/>
						<stop  offset="0.6632" style="stop-color:#2DD400"/>
						<stop  offset="0.8837" style="stop-color:#000CBF"/>
					</linearGradient>
					<path id="path90" inkscape:connector-curvature="0" class="st12" d="M-2.1,0c-0.5-6.7-1-13.3-3.1-19.7C-6-22.4-6-25.7-5-28.3
						c0.4-0.9,2.2-3.2,2.1-4c-0.2-1.6-2.3,1.5-2.4,1.8c-1.4,3-3.2,5.2-2.9,8.7c0.3,3.4,1.9,6.5,2.6,9.9C-5-8.6-4.3-5.4-3.8-2.1
						C-3.6-0.9-3.5,0.5-3,1.7C-2.6,2.7-1.4,0-2.1,0C-2.2-1.2-2.1,0-2.1,0"/>
				</g>
				<g id="g92" transform="translate(94.9702,86.1289)">
					<linearGradient id="path94_1_" gradientUnits="userSpaceOnUse" x1="-3.4135" y1="-3.1158" x2="-4.9045" y2="2.1836">
						<stop  offset="0" style="stop-color:#F40000"/>
						<stop  offset="0.2389" style="stop-color:#ED690F"/>
						<stop  offset="0.4087" style="stop-color:#E2E900"/>
						<stop  offset="0.5298" style="stop-color:#85DE00"/>
						<stop  offset="0.6205" style="stop-color:#46D700"/>
						<stop  offset="0.6632" style="stop-color:#2DD400"/>
						<stop  offset="0.8837" style="stop-color:#000CBF"/>
					</linearGradient>
					<path id="path94" inkscape:connector-curvature="0" class="st13" d="M-2.1,0C-0.3,0.3,1,0.8,2.4,2c0.4,0.3,1,1.2,1.5,1.3
						c0.9,0.2,0.5-1,0.3-1.4c-1-1.1-1.2-3.2-2.9-3.7c-1.5-0.5-4.2,0-5.4-1.1c-1.4-1.3-3.3-1-5-1.6c-0.9-0.3-2.1-0.6-3.1-0.4
						c-0.6,0.1-0.6,1,0,1.2c2,0.4,3.2,1.7,4.3,3.4C-6.6,1.5-4.1,0.2-2.1,0C-1.9,0-2.7,0-2.1,0"/>
				</g>
				<g id="g96" transform="translate(64.8022,100.9063)">
					<linearGradient id="path98_1_" gradientUnits="userSpaceOnUse" x1="1.1455" y1="0.8861" x2="-3.6314" y2="17.8651">
						<stop  offset="0" style="stop-color:#F40000"/>
						<stop  offset="0.2389" style="stop-color:#ED690F"/>
						<stop  offset="0.4087" style="stop-color:#E2E900"/>
						<stop  offset="0.5298" style="stop-color:#85DE00"/>
						<stop  offset="0.6205" style="stop-color:#46D700"/>
						<stop  offset="0.6632" style="stop-color:#2DD400"/>
						<stop  offset="0.8837" style="stop-color:#000CBF"/>
					</linearGradient>
					<path id="path98" inkscape:connector-curvature="0" class="st14" d="M-2.1,0c-1,0-0.3,7-0.2,8.1c0.1,0.7,1.6,7,2.5,7.2
						C2.1,15.7,0,8.6-0.2,7.7C-0.5,6.7-1.3,0-2.1,0C-2.5,0-1.7,0-2.1,0"/>
				</g>
				<g id="g100" transform="translate(99.1538,105.9316)">
					<linearGradient id="path102_1_" gradientUnits="userSpaceOnUse" x1="1.8882" y1="-3.6212" x2="-0.3375" y2="4.2897">
						<stop  offset="0" style="stop-color:#F40000"/>
						<stop  offset="0.2389" style="stop-color:#ED690F"/>
						<stop  offset="0.4087" style="stop-color:#E2E900"/>
						<stop  offset="0.5298" style="stop-color:#85DE00"/>
						<stop  offset="0.6205" style="stop-color:#46D700"/>
						<stop  offset="0.6632" style="stop-color:#2DD400"/>
						<stop  offset="0.8837" style="stop-color:#000CBF"/>
					</linearGradient>
					<path id="path102" inkscape:connector-curvature="0" class="st15" d="M-2.1,0C-2.8,2.7-2,2.5,0,1.3C2,0.2,3.7,1,4.4-1.6
						C5-3.7,2.5-3,1.1-3.3C-0.4-3.7-2.5-0.1-2.1,0C-2.2,0.5-2.1,0-2.1,0"/>
				</g>
				<g id="g104" transform="translate(115.2007,71.3438)">
					<linearGradient id="path106_1_" gradientUnits="userSpaceOnUse" x1="-2.9676" y1="-0.3478" x2="-5.0956" y2="7.2157">
						<stop  offset="0" style="stop-color:#F40000"/>
						<stop  offset="0.2389" style="stop-color:#ED690F"/>
						<stop  offset="0.4087" style="stop-color:#E2E900"/>
						<stop  offset="0.5298" style="stop-color:#85DE00"/>
						<stop  offset="0.6205" style="stop-color:#46D700"/>
						<stop  offset="0.6632" style="stop-color:#2DD400"/>
						<stop  offset="0.8837" style="stop-color:#000CBF"/>
					</linearGradient>
					<path id="path106" inkscape:connector-curvature="0" class="st16" d="M-2.1,0C-4.6,0.1-7,0.7-9,2.4c-0.3,0.2-2.2,1.8-0.6,1.8
						c1.2,0,2.8-1.1,3.9-1.4c2.3-0.7,5.3-1,7.7-0.9C3.1,2,2,1,1.6,0.9C0.3,0.7-0.9,0.3-2.1,0C-3.1,0-1.7,0.1-2.1,0"/>
				</g>
				<g id="g108" transform="translate(95.1167,77.1914)">
					<linearGradient id="path110_1_" gradientUnits="userSpaceOnUse" x1="2.3475" y1="0.8548" x2="0.4614" y2="7.5583">
						<stop  offset="0" style="stop-color:#F40000"/>
						<stop  offset="0.2389" style="stop-color:#ED690F"/>
						<stop  offset="0.4087" style="stop-color:#E2E900"/>
						<stop  offset="0.5298" style="stop-color:#85DE00"/>
						<stop  offset="0.6205" style="stop-color:#46D700"/>
						<stop  offset="0.6632" style="stop-color:#2DD400"/>
						<stop  offset="0.8837" style="stop-color:#000CBF"/>
					</linearGradient>
					<path id="path110" inkscape:connector-curvature="0" class="st17" d="M-2.1,0c-0.5,0-1.2,0.6-0.7,1c0.9,0.8,1.8,1,2.9,1.5
						c1,0.4,2.3,1.3,3.1,2.1c0.5,0.6,1.6,2.6,2.2,2.9c1.4,0.6-0.7-4.2-0.7-4.7C4.7,0.6-0.6,0.3-2.1,0C-2.4,0-1.5,0.1-2.1,0"/>
				</g>
				<g id="g112" transform="translate(108.8862,92.7129)">
					<linearGradient id="path114_1_" gradientUnits="userSpaceOnUse" x1="-4.599" y1="-0.7382" x2="-7.8479" y2="10.8096">
						<stop  offset="0" style="stop-color:#F40000"/>
						<stop  offset="0.2389" style="stop-color:#ED690F"/>
						<stop  offset="0.4087" style="stop-color:#E2E900"/>
						<stop  offset="0.5298" style="stop-color:#85DE00"/>
						<stop  offset="0.6205" style="stop-color:#46D700"/>
						<stop  offset="0.6632" style="stop-color:#2DD400"/>
						<stop  offset="0.8837" style="stop-color:#000CBF"/>
					</linearGradient>
					<path id="path114" inkscape:connector-curvature="0" class="st18" d="M-2.1,0c-1.3,0.6-5.1,2.2-5.1,3.9c0,1-1.1,1.5-1.8,2
						c-0.6,0.4-2.6,2.3-0.5,1.5c2.1-0.8,3.8-1.7,5.4-3.3C-3.7,3.7,0,0.1-2.1,0C-2.3,0.1-1.5,0-2.1,0"/>
				</g>
				<g id="g116" transform="translate(114.4292,70.0625)">
					<linearGradient id="path118_1_" gradientUnits="userSpaceOnUse" x1="-2.7512" y1="-1.8814" x2="-5.3114" y2="7.2184">
						<stop  offset="0" style="stop-color:#F40000"/>
						<stop  offset="0.2389" style="stop-color:#ED690F"/>
						<stop  offset="0.4087" style="stop-color:#E2E900"/>
						<stop  offset="0.5298" style="stop-color:#85DE00"/>
						<stop  offset="0.6205" style="stop-color:#46D700"/>
						<stop  offset="0.6632" style="stop-color:#2DD400"/>
						<stop  offset="0.8837" style="stop-color:#000CBF"/>
					</linearGradient>
					<path id="path118" inkscape:connector-curvature="0" class="st19" d="M-2.1,0c0.7,0,5.9,0.7,5.7,0.4C3.3-0.5,0.6-0.9-0.3-1.1
						c-1.8-0.4-3-0.3-4.7,0.4C-6.6,0.1-8.1,1-9.7,2C-10,2.3-11,2.7-11.2,3.2c-0.2,0.4,0.4,0.6,0.7,0.5C-10.2,3.5-2.2-0.8-2.1,0
						C-2,0-2.1,0-2.1,0"/>
				</g>
				<g id="g120" transform="translate(106.1519,102.9043)">
					<linearGradient id="path122_1_" gradientUnits="userSpaceOnUse" x1="-0.3206" y1="-0.4011" x2="-3.1564" y2="9.6782">
						<stop  offset="0" style="stop-color:#F40000"/>
						<stop  offset="0.2389" style="stop-color:#ED690F"/>
						<stop  offset="0.4087" style="stop-color:#E2E900"/>
						<stop  offset="0.5298" style="stop-color:#85DE00"/>
						<stop  offset="0.6205" style="stop-color:#46D700"/>
						<stop  offset="0.6632" style="stop-color:#2DD400"/>
						<stop  offset="0.8837" style="stop-color:#000CBF"/>
					</linearGradient>
					<path id="path122" inkscape:connector-curvature="0" class="st20" d="M-2.1,0c0.5,1.6-0.2,3.6-1.1,4.9C-3.4,5.3-4.4,6.7-4,7.2
						c0.4,0.5,1.4-0.3,1.8-0.5c2.1-0.8,2.3-1.7,2-3.8C-0.2,2.1-1.6-2.6-2.1,0C-1.9,0.6-2.1-0.2-2.1,0"/>
				</g>
				<g id="g124" transform="translate(117.7886,73.9688)">
					<linearGradient id="path126_1_" gradientUnits="userSpaceOnUse" x1="-5.2635" y1="-0.9771" x2="-7.5827" y2="7.2663">
						<stop  offset="0" style="stop-color:#F40000"/>
						<stop  offset="0.2389" style="stop-color:#ED690F"/>
						<stop  offset="0.4087" style="stop-color:#E2E900"/>
						<stop  offset="0.5298" style="stop-color:#85DE00"/>
						<stop  offset="0.6205" style="stop-color:#46D700"/>
						<stop  offset="0.6632" style="stop-color:#2DD400"/>
						<stop  offset="0.8837" style="stop-color:#000CBF"/>
					</linearGradient>
					<path id="path126" inkscape:connector-curvature="0" class="st21" d="M-2.1,0C-4.5,0.3-6.8,0.7-9,1.9c-0.8,0.5-1.7,1-2.5,1.6
						c-0.8,0.6,0.5,1.3,1.1,0.8c1.9-1.4,4.4-2.2,6.7-2.9c0.9-0.2,1.9-0.3,2.7-0.7C-0.1,0.5-2.1-0.2-2.1,0C-2.7,0.1-2.1,0-2.1,0"/>
				</g>
				<g id="g128" transform="translate(108.8999,100.0449)">
					<linearGradient id="path130_1_" gradientUnits="userSpaceOnUse" x1="4.111634e-04" y1="-0.3698" x2="-2.6095" y2="8.9068">
						<stop  offset="0" style="stop-color:#F40000"/>
						<stop  offset="0.2389" style="stop-color:#ED690F"/>
						<stop  offset="0.4087" style="stop-color:#E2E900"/>
						<stop  offset="0.5298" style="stop-color:#85DE00"/>
						<stop  offset="0.6205" style="stop-color:#46D700"/>
						<stop  offset="0.6632" style="stop-color:#2DD400"/>
						<stop  offset="0.8837" style="stop-color:#000CBF"/>
					</linearGradient>
					<path id="path130" inkscape:connector-curvature="0" class="st22" d="M-2.1,0c-0.3,1.5,0.4,3.8,0.6,5.4c0.2,1.6,1,3.4,1.8,0.8
						C0.9,4,0,3.3-0.3,1.2C-0.5,0.3-2.1-2.1-2.1,0C-2.2,0.3-2.1-0.1-2.1,0"/>
				</g>
				<g id="g132" transform="translate(109.4351,87.7461)">
					<linearGradient id="path134_1_" gradientUnits="userSpaceOnUse" x1="-3.0201" y1="-5.6999" x2="-5.411" y2="2.7983">
						<stop  offset="0" style="stop-color:#F40000"/>
						<stop  offset="0.2389" style="stop-color:#ED690F"/>
						<stop  offset="0.4087" style="stop-color:#E2E900"/>
						<stop  offset="0.5298" style="stop-color:#85DE00"/>
						<stop  offset="0.6205" style="stop-color:#46D700"/>
						<stop  offset="0.6632" style="stop-color:#2DD400"/>
						<stop  offset="0.8837" style="stop-color:#000CBF"/>
					</linearGradient>
					<path id="path134" inkscape:connector-curvature="0" class="st23" d="M-2.1,0c0-1.4-0.3-2.6-1.1-3.7c-0.5-0.7-1.1-1.5-1.6-2.2
						C-5.5-7-6-5.9-5.6-5.2c0.9,1.7,1.2,3.6,2,5.3c0.2,0.3,0.4,1.7,1.1,1.6C-1.9,1.6-2.2,0-2.1,0C-2.1,0-2.1,0-2.1,0"/>
				</g>
				<g id="g136" transform="translate(106.6323,91.0957)">
					<linearGradient id="path138_1_" gradientUnits="userSpaceOnUse" x1="-3.666" y1="-5.0211" x2="-5.6523" y2="2.0388">
						<stop  offset="0" style="stop-color:#F40000"/>
						<stop  offset="0.2389" style="stop-color:#ED690F"/>
						<stop  offset="0.4087" style="stop-color:#E2E900"/>
						<stop  offset="0.5298" style="stop-color:#85DE00"/>
						<stop  offset="0.6205" style="stop-color:#46D700"/>
						<stop  offset="0.6632" style="stop-color:#2DD400"/>
						<stop  offset="0.8837" style="stop-color:#000CBF"/>
					</linearGradient>
					<path id="path138" inkscape:connector-curvature="0" class="st24" d="M-2.1,0c-0.2-1.9-1.6-3.1-2.8-4.5c-0.3-0.4-0.9-1.5-1.6-1
						c-0.7,0.5,0.5,1.5,0.7,1.9C-5.2-2.6-2.4,4.2-2.1,0C-2.2-0.9-2.1,0.4-2.1,0"/>
				</g>
				<g id="g140" transform="translate(101.4077,91.666)">
					<linearGradient id="path142_1_" gradientUnits="userSpaceOnUse" x1="-0.9908" y1="0.2372" x2="-1.783" y2="3.0529">
						<stop  offset="0" style="stop-color:#F40000"/>
						<stop  offset="0.2389" style="stop-color:#ED690F"/>
						<stop  offset="0.4087" style="stop-color:#E2E900"/>
						<stop  offset="0.5298" style="stop-color:#85DE00"/>
						<stop  offset="0.6205" style="stop-color:#46D700"/>
						<stop  offset="0.6632" style="stop-color:#2DD400"/>
						<stop  offset="0.8837" style="stop-color:#000CBF"/>
					</linearGradient>
					<path id="path142" inkscape:connector-curvature="0" class="st25" d="M-2.1,0c-0.4,0-2,0.3-1.9,0.9c0.1,0.8,2.4,1.5,3,1.7
						c0.4,0.1,2.9-0.2,2.3-1C0.6,0.7-1,0.1-2.1,0C-2.7,0-1.5,0.1-2.1,0"/>
				</g>
				<g id="g144" transform="translate(57.2397,42.6465)">
					<linearGradient id="path146_1_" gradientUnits="userSpaceOnUse" x1="3.0622" y1="-4.2717" x2="1.1965" y2="2.3596">
						<stop  offset="0" style="stop-color:#F40000"/>
						<stop  offset="0.2389" style="stop-color:#ED690F"/>
						<stop  offset="0.4087" style="stop-color:#E2E900"/>
						<stop  offset="0.5298" style="stop-color:#85DE00"/>
						<stop  offset="0.6205" style="stop-color:#46D700"/>
						<stop  offset="0.6632" style="stop-color:#2DD400"/>
						<stop  offset="0.8837" style="stop-color:#000CBF"/>
					</linearGradient>
					<path id="path146" inkscape:connector-curvature="0" class="st26" d="M-2.1,0c1.4-0.4,2.6-1,3.9-1.5C3.4-2.2,5.1-2.3,6.7-3
						C6.2-4.5-1.6-1.4-2.1,0C-1.8-0.1-1.9-0.5-2.1,0"/>
				</g>
				<g id="g148" transform="translate(83.3394,72.0352)">
					<linearGradient id="path150_1_" gradientUnits="userSpaceOnUse" x1="-3.0422" y1="-0.2739" x2="-5.6051" y2="8.8353">
						<stop  offset="0" style="stop-color:#F40000"/>
						<stop  offset="0.2389" style="stop-color:#ED690F"/>
						<stop  offset="0.4087" style="stop-color:#E2E900"/>
						<stop  offset="0.5298" style="stop-color:#85DE00"/>
						<stop  offset="0.6205" style="stop-color:#46D700"/>
						<stop  offset="0.6632" style="stop-color:#2DD400"/>
						<stop  offset="0.8837" style="stop-color:#000CBF"/>
					</linearGradient>
					<path id="path150" inkscape:connector-curvature="0" class="st27" d="M-2.1,0c-0.2-0.4-4.4,5.2-3.7,6.7
						c0.4,0.7,1.5-2.3,1.5-2.3C-3.7,2.9-2.4,1.6-2.1,0C-2.1-0.1-2.2,0.4-2.1,0"/>
				</g>
				<g id="g152" transform="translate(82.5386,74.3438)">
					<linearGradient id="path154_1_" gradientUnits="userSpaceOnUse" x1="1.5052" y1="-6.1521" x2="-0.9233" y2="2.4797">
						<stop  offset="0" style="stop-color:#F40000"/>
						<stop  offset="0.2389" style="stop-color:#ED690F"/>
						<stop  offset="0.4087" style="stop-color:#E2E900"/>
						<stop  offset="0.5298" style="stop-color:#85DE00"/>
						<stop  offset="0.6205" style="stop-color:#46D700"/>
						<stop  offset="0.6632" style="stop-color:#2DD400"/>
						<stop  offset="0.8837" style="stop-color:#000CBF"/>
					</linearGradient>
					<path id="path154" inkscape:connector-curvature="0" class="st28" d="M-2.1,0C-2,0.1-2,0.2-1.9,0.3c-0.3-0.2,4.8-5.2,5-5.7
						c0.4-1.1-2.2,1-2.3,1.2C-0.3-2.9-1.4-1.5-2.1,0C-2,0.1-2-0.3-2.1,0"/>
				</g>
				<g id="g156" transform="translate(93.1226,66.9922)">
					<linearGradient id="path158_1_" gradientUnits="userSpaceOnUse" x1="-4.0654" y1="-0.5726" x2="-5.4998" y2="4.5261">
						<stop  offset="0" style="stop-color:#F40000"/>
						<stop  offset="0.2389" style="stop-color:#ED690F"/>
						<stop  offset="0.4087" style="stop-color:#E2E900"/>
						<stop  offset="0.5298" style="stop-color:#85DE00"/>
						<stop  offset="0.6205" style="stop-color:#46D700"/>
						<stop  offset="0.6632" style="stop-color:#2DD400"/>
						<stop  offset="0.8837" style="stop-color:#000CBF"/>
					</linearGradient>
					<path id="path158" inkscape:connector-curvature="0" class="st29" d="M-2.1,0C-3.2-0.7-7.8,2.3-7,3C-6.9,3.1-2.3,0.5-2.1,0
						C-2.4-0.2-2.3,0.3-2.1,0"/>
				</g>
				<g id="g160" transform="translate(64.2671,38.4746)">
					<linearGradient id="path162_1_" gradientUnits="userSpaceOnUse" x1="0.6555" y1="-0.9535" x2="5.889438e-02" y2="1.167">
						<stop  offset="0" style="stop-color:#F40000"/>
						<stop  offset="0.2389" style="stop-color:#ED690F"/>
						<stop  offset="0.4087" style="stop-color:#E2E900"/>
						<stop  offset="0.5298" style="stop-color:#85DE00"/>
						<stop  offset="0.6205" style="stop-color:#46D700"/>
						<stop  offset="0.6632" style="stop-color:#2DD400"/>
						<stop  offset="0.8837" style="stop-color:#000CBF"/>
					</linearGradient>
					<path id="path162" inkscape:connector-curvature="0" class="st30" d="M-2.1,0c1.5,0,2.9,0.1,4.3,0.3C4,0.7,3.5-0.4,2.2-0.5
						c-1.4-0.1-2.7,0-4.1,0C-3.3-0.5-2.1,0.3-2.1,0C-1.3,0-2.1,0-2.1,0"/>
				</g>
				<g id="g164" transform="translate(99.7046,57.6211)">
					<path id="path166" inkscape:connector-curvature="0" d="M-2.1,0c-0.5-2-1-1.6-0.9,0.3c0,0.2-0.5,0.9-0.2,1.2
						C-2.5,2.2-2.1,0.2-2.1,0C-2.2-0.4-2.1,0.3-2.1,0"/>
				</g>
				<g id="g168" transform="translate(100.1265,61.3262)">
					<path id="path170" inkscape:connector-curvature="0" d="M-2.1,0c0.2-0.6,0.5-1.4,0.5-2c0-1.2-0.8,0.2-0.9,0.4
						C-2.7-1.1-3.7,1.1-2.1,0"/>
				</g>
				<g id="g172" transform="translate(131.9565,78.3438)">
					<linearGradient id="path174_1_" gradientUnits="userSpaceOnUse" x1="-1.4167" y1="0.1008" x2="-4.5195" y2="11.1291">
						<stop  offset="0" style="stop-color:#F40000"/>
						<stop  offset="0.2389" style="stop-color:#ED690F"/>
						<stop  offset="0.4087" style="stop-color:#E2E900"/>
						<stop  offset="0.5298" style="stop-color:#85DE00"/>
						<stop  offset="0.6205" style="stop-color:#46D700"/>
						<stop  offset="0.6632" style="stop-color:#2DD400"/>
						<stop  offset="0.8837" style="stop-color:#000CBF"/>
					</linearGradient>
					<path id="path174" inkscape:connector-curvature="0" class="st31" d="M-2.1,0c-3,0.3-4.4,3.7-3.6,6.3C-5.4,7.2-4.4,9.2-3.2,9
						C-2.6,8.9-0.4,7-1.3,6.3c-0.3-0.2-2.9-2.6-1.1-2.7c1.1-0.1,0.5,2.2,2.1,1.9C2.2,5,0-0.2-2.1,0C-2.7,0.1-1.5-0.1-2.1,0"/>
				</g>
				<g id="g176" transform="translate(118.2476,119.4512)">
					<linearGradient id="path178_1_" gradientUnits="userSpaceOnUse" x1="-2.3322" y1="-7.005" x2="-4.6234" y2="1.1384">
						<stop  offset="0" style="stop-color:#F40000"/>
						<stop  offset="0.2389" style="stop-color:#ED690F"/>
						<stop  offset="0.4087" style="stop-color:#E2E900"/>
						<stop  offset="0.5298" style="stop-color:#85DE00"/>
						<stop  offset="0.6205" style="stop-color:#46D700"/>
						<stop  offset="0.6632" style="stop-color:#2DD400"/>
						<stop  offset="0.8837" style="stop-color:#000CBF"/>
					</linearGradient>
					<path id="path178" inkscape:connector-curvature="0" class="st32" d="M-2.1,0C0.3,0,0.8-3.8,0-5.4c-1.6-2.9-5.2-1.3-6.7,0.7
						C-7.5-3.5-7.1-2-5.4-2.6C-4.5-2.9-4.2-5-2.9-4.4c1.8,0.7-1.2,2-1.4,2.3C-5.5-0.6-3-0.1-2.1,0C-1.9,0-2.3,0-2.1,0"/>
				</g>
				<g id="g180" transform="translate(109.189,116.8594)">
					<linearGradient id="path182_1_" gradientUnits="userSpaceOnUse" x1="-0.9234" y1="0.2236" x2="-2.9216" y2="7.326">
						<stop  offset="0" style="stop-color:#F40000"/>
						<stop  offset="0.2389" style="stop-color:#ED690F"/>
						<stop  offset="0.4087" style="stop-color:#E2E900"/>
						<stop  offset="0.5298" style="stop-color:#85DE00"/>
						<stop  offset="0.6205" style="stop-color:#46D700"/>
						<stop  offset="0.6632" style="stop-color:#2DD400"/>
						<stop  offset="0.8837" style="stop-color:#000CBF"/>
					</linearGradient>
					<path id="path182" inkscape:connector-curvature="0" class="st33" d="M-2.1,0c-2,0.1-3.3,1.6-4.2,3.1c-0.4,0.7,0.8,2,1.5,2.1
						C-3.7,5.4-3,4.3-2.3,3.7c0.9-0.8,2-0.5,2.8,0.2c0.5,0.4,2.3,1,2.1-0.2C2.5,1.1,0,0.3-2.1,0C-2.8,0-2,0-2.1,0"/>
				</g>
				<g id="g184" transform="translate(96.605,125.3574)">
					<linearGradient id="path186_1_" gradientUnits="userSpaceOnUse" x1="-1.2535" y1="-0.141" x2="-3.8213" y2="8.9859">
						<stop  offset="0" style="stop-color:#F40000"/>
						<stop  offset="0.2389" style="stop-color:#ED690F"/>
						<stop  offset="0.4087" style="stop-color:#E2E900"/>
						<stop  offset="0.5298" style="stop-color:#85DE00"/>
						<stop  offset="0.6205" style="stop-color:#46D700"/>
						<stop  offset="0.6632" style="stop-color:#2DD400"/>
						<stop  offset="0.8837" style="stop-color:#000CBF"/>
					</linearGradient>
					<path id="path186" inkscape:connector-curvature="0" class="st34" d="M-2.1,0c-2.3,0.7-3.2,2.2-3.8,4.5c-1,3.3,3.4,2.7,3.5-0.4
						c0-1.3,2.8,1.5,3.5-0.5c0.4-1.2,0.2-2.4-0.8-3.2C0.1,0.2-2.2-0.4-2.1,0C-2.5,0.1-2.1,0-2.1,0"/>
				</g>
				<g id="g188" transform="translate(75.5366,122.293)">
					<linearGradient id="path190_1_" gradientUnits="userSpaceOnUse" x1="-4.8454" y1="-0.8064" x2="-6.7355" y2="5.9116">
						<stop  offset="0" style="stop-color:#F40000"/>
						<stop  offset="0.2389" style="stop-color:#ED690F"/>
						<stop  offset="0.4087" style="stop-color:#E2E900"/>
						<stop  offset="0.5298" style="stop-color:#85DE00"/>
						<stop  offset="0.6205" style="stop-color:#46D700"/>
						<stop  offset="0.6632" style="stop-color:#2DD400"/>
						<stop  offset="0.8837" style="stop-color:#000CBF"/>
					</linearGradient>
					<path id="path190" inkscape:connector-curvature="0" class="st35" d="M-2.1,0c-1.1,0.1-2.2-0.8-3.3-0.9C-6.3-1-7.2-0.6-8-0.3
						c-1.7,0.7,0.4,4.1,1.3,4.7c0.5,0.3,1.8,0.5,2.2-0.1C-3.9,3.5-4.9,2.7-5.3,2C-6.3,0.2-0.9,2.9-2.1,0C-2.4,0-2,0.1-2.1,0"/>
				</g>
				<g id="g192" transform="translate(101.9331,125.1973)">
					<linearGradient id="path194_1_" gradientUnits="userSpaceOnUse" x1="1.87" y1="-2.7499" x2="4.491046e-02" y2="3.7372">
						<stop  offset="0" style="stop-color:#F40000"/>
						<stop  offset="0.2389" style="stop-color:#ED690F"/>
						<stop  offset="0.4087" style="stop-color:#E2E900"/>
						<stop  offset="0.5298" style="stop-color:#85DE00"/>
						<stop  offset="0.6205" style="stop-color:#46D700"/>
						<stop  offset="0.6632" style="stop-color:#2DD400"/>
						<stop  offset="0.8837" style="stop-color:#000CBF"/>
					</linearGradient>
					<path id="path194" inkscape:connector-curvature="0" class="st36" d="M-2.1,0c-0.5,2.5,2.8,2.7,2.3,1.1c-0.2-0.6,0.3-2,1.1-1.8
						c1,0.3,0.6,2.1,2.1,2c2.4-0.1-0.1-3.5-1.1-3.9C0.6-3.2-2.6-2.4-2.1,0C-2.1,0.2-2.2-0.6-2.1,0"/>
				</g>
				<g id="g196" transform="translate(91.978,124.998)">
					<linearGradient id="path198_1_" gradientUnits="userSpaceOnUse" x1="-2.6193" y1="-2.9606" x2="-4.6632" y2="4.3038">
						<stop  offset="0" style="stop-color:#F40000"/>
						<stop  offset="0.2389" style="stop-color:#ED690F"/>
						<stop  offset="0.4087" style="stop-color:#E2E900"/>
						<stop  offset="0.5298" style="stop-color:#85DE00"/>
						<stop  offset="0.6205" style="stop-color:#46D700"/>
						<stop  offset="0.6632" style="stop-color:#2DD400"/>
						<stop  offset="0.8837" style="stop-color:#000CBF"/>
					</linearGradient>
					<path id="path198" inkscape:connector-curvature="0" class="st37" d="M-2.1,0c1.9-0.2,2.2-1.7,0.5-2.7C-3-3.4-6-0.9-6.2,0.4
						c-0.2,1,1.6,3.1,2.6,2.2C-2.9,2-3.8,1.6-3.4,1C-3.3,0.8-2.3-0.6-2.1,0C-1.8,0-2.1,0-2.1,0"/>
				</g>
				<g id="g200" transform="translate(61.9409,120.7871)">
					<linearGradient id="path202_1_" gradientUnits="userSpaceOnUse" x1="-3.4804" y1="-1.7464" x2="-5.0562" y2="3.8544">
						<stop  offset="0" style="stop-color:#F40000"/>
						<stop  offset="0.2389" style="stop-color:#ED690F"/>
						<stop  offset="0.4087" style="stop-color:#E2E900"/>
						<stop  offset="0.5298" style="stop-color:#85DE00"/>
						<stop  offset="0.6205" style="stop-color:#46D700"/>
						<stop  offset="0.6632" style="stop-color:#2DD400"/>
						<stop  offset="0.8837" style="stop-color:#000CBF"/>
					</linearGradient>
					<path id="path202" inkscape:connector-curvature="0" class="st38" d="M-2.1,0c-0.6-0.2-1.2-0.2-1.4-0.9c-0.2-0.7-0.7-1.5-1.6-1
						c-1.5,1-3.1,2.3-0.7,3.3c0.6,0.3,0.6,0.8,1.1,1.2C-3.8,3.3-3,2.4-2.4,1.9c0.5-0.4,1.5-0.7,1.1-1.6C-1.3,0.2-2-0.4-2.1,0
						C-2.4-0.1-2.1,0-2.1,0"/>
				</g>
				<g id="g204" transform="translate(64.9917,125.7598)">
					<linearGradient id="path206_1_" gradientUnits="userSpaceOnUse" x1="-0.1158" y1="-2.2289" x2="-1.3192" y2="2.0483">
						<stop  offset="0" style="stop-color:#F40000"/>
						<stop  offset="0.2389" style="stop-color:#ED690F"/>
						<stop  offset="0.4087" style="stop-color:#E2E900"/>
						<stop  offset="0.5298" style="stop-color:#85DE00"/>
						<stop  offset="0.6205" style="stop-color:#46D700"/>
						<stop  offset="0.6632" style="stop-color:#2DD400"/>
						<stop  offset="0.8837" style="stop-color:#000CBF"/>
					</linearGradient>
					<path id="path206" inkscape:connector-curvature="0" class="st39" d="M-2.1,0c1,0,0.6,1.3,1.7,1.4c1.3,0.1,3-1.2,1.5-2.4
						C0.7-1.4-1.8-3-2.1-2.7C-2.6-2.2-3.6,0.4-2.1,0C-1.6,0-2.4,0.1-2.1,0"/>
				</g>
				<g id="g208" transform="translate(55.771,117.6367)">
					<linearGradient id="path210_1_" gradientUnits="userSpaceOnUse" x1="0.9359" y1="-3.2698" x2="-0.7029" y2="2.5553">
						<stop  offset="0" style="stop-color:#F40000"/>
						<stop  offset="0.2389" style="stop-color:#ED690F"/>
						<stop  offset="0.4087" style="stop-color:#E2E900"/>
						<stop  offset="0.5298" style="stop-color:#85DE00"/>
						<stop  offset="0.6205" style="stop-color:#46D700"/>
						<stop  offset="0.6632" style="stop-color:#2DD400"/>
						<stop  offset="0.8837" style="stop-color:#000CBF"/>
					</linearGradient>
					<path id="path210" inkscape:connector-curvature="0" class="st40" d="M-2.1,0c0,2,1.7,0.6,2.4-0.2c0.3-0.4,0.2-0.8,0.8-1
						c0.3-0.1,1.4-0.2,1.6-0.5c0.7-0.8-1.9-1.8-2.4-1.6C-0.8-2.9-2.2-1.3-2.1,0C-2.1,0.1-2.1-0.3-2.1,0"/>
				</g>
				<g id="g212" transform="translate(76.2612,124.6094)">
					<linearGradient id="path214_1_" gradientUnits="userSpaceOnUse" x1="-1.4174" y1="0.1929" x2="-2.6341" y2="4.5174">
						<stop  offset="0" style="stop-color:#F40000"/>
						<stop  offset="0.2389" style="stop-color:#ED690F"/>
						<stop  offset="0.4087" style="stop-color:#E2E900"/>
						<stop  offset="0.5298" style="stop-color:#85DE00"/>
						<stop  offset="0.6205" style="stop-color:#46D700"/>
						<stop  offset="0.6632" style="stop-color:#2DD400"/>
						<stop  offset="0.8837" style="stop-color:#000CBF"/>
					</linearGradient>
					<path id="path214" inkscape:connector-curvature="0" class="st41" d="M-2.1,0c-3.5-0.1-1.6,5,0.5,3.2c0.4-0.3,2.3-0.6,1.9-1.4
						C-0.1,0.8-1.2,0.3-2.1,0C-2.7,0-1.9,0.1-2.1,0"/>
				</g>
				<g id="g216" transform="translate(134.7065,90.3828)">
					<linearGradient id="path218_1_" gradientUnits="userSpaceOnUse" x1="-2.1887" y1="-2.405037e-02" x2="-3.5489" y2="4.8105">
						<stop  offset="0" style="stop-color:#F40000"/>
						<stop  offset="0.2389" style="stop-color:#ED690F"/>
						<stop  offset="0.4087" style="stop-color:#E2E900"/>
						<stop  offset="0.5298" style="stop-color:#85DE00"/>
						<stop  offset="0.6205" style="stop-color:#46D700"/>
						<stop  offset="0.6632" style="stop-color:#2DD400"/>
						<stop  offset="0.8837" style="stop-color:#000CBF"/>
					</linearGradient>
					<path id="path218" inkscape:connector-curvature="0" class="st42" d="M-2.1,0c-1.5,0.5-3.7,2.3-1.3,3.7C-1.6,4.8,0,1.1-2.1,0
						C-2.7,0.2-2,0.1-2.1,0"/>
				</g>
				<g id="g220" transform="translate(111.9077,121.623)">
					<linearGradient id="path222_1_" gradientUnits="userSpaceOnUse" x1="-2.3667" y1="-0.2318" x2="-3.487" y2="3.7503">
						<stop  offset="0" style="stop-color:#F40000"/>
						<stop  offset="0.2389" style="stop-color:#ED690F"/>
						<stop  offset="0.4087" style="stop-color:#E2E900"/>
						<stop  offset="0.5298" style="stop-color:#85DE00"/>
						<stop  offset="0.6205" style="stop-color:#46D700"/>
						<stop  offset="0.6632" style="stop-color:#2DD400"/>
						<stop  offset="0.8837" style="stop-color:#000CBF"/>
					</linearGradient>
					<path id="path222" inkscape:connector-curvature="0" class="st43" d="M-2.1,0c-2.3-0.5-3.1,0.8-1.6,2.6c0.7,0.8,2,0.3,2.4-0.5
						c0.2-0.4,0.5-1.5,0.2-1.9C-1.2,0.1-2.1-0.2-2.1,0C-2.2,0-2.1,0-2.1,0"/>
				</g>
			</g>
		</g>
	</g>
</g>
</svg>
